<svg width="16" height="16" viewBox="0 0 16 16" fill="none" xmlns="http://www.w3.org/2000/svg">
<path fill-rule="evenodd" clip-rule="evenodd" d="M8.00016 1.33325C4.31826 1.33325 1.3335 4.31802 1.3335 7.99992C1.3335 11.6818 4.31826 14.6666 8.00016 14.6666C11.6821 14.6666 14.6668 11.6818 14.6668 7.99992C14.6668 6.23181 13.9644 4.53612 12.7142 3.28587C11.464 2.03563 9.76827 1.33325 8.00016 1.33325ZM8.66683 13.2866V12.6666C8.66683 12.2984 8.36835 11.9999 8.00016 11.9999C7.63197 11.9999 7.3335 12.2984 7.3335 12.6666V13.2866C4.92004 12.9805 3.01955 11.08 2.7135 8.66659H3.3335C3.70169 8.66659 4.00016 8.36811 4.00016 7.99992C4.00016 7.63173 3.70169 7.33325 3.3335 7.33325H2.7135C3.01955 4.91979 4.92004 3.01931 7.3335 2.71325V3.33325C7.3335 3.70144 7.63197 3.99992 8.00016 3.99992C8.36835 3.99992 8.66683 3.70144 8.66683 3.33325V2.71325C11.0803 3.01931 12.9808 4.91979 13.2868 7.33325H12.6668C12.2986 7.33325 12.0002 7.63173 12.0002 7.99992C12.0002 8.36811 12.2986 8.66659 12.6668 8.66659H13.2868C12.9808 11.08 11.0803 12.9805 8.66683 13.2866ZM10.0935 5.03325L6.76016 6.44659C6.60477 6.51391 6.48083 6.63786 6.4135 6.79325L5.00016 10.1266C4.89275 10.3767 4.94816 10.667 5.14016 10.8599C5.26325 10.9855 5.43098 11.0574 5.60683 11.0599C5.69907 11.06 5.79018 11.0395 5.8735 10.9999L9.20683 9.58659C9.36222 9.51926 9.48617 9.39531 9.5535 9.23992L10.9668 5.90659C11.0722 5.6567 11.0157 5.36789 10.824 5.17612C10.6322 4.98436 10.3434 4.92787 10.0935 5.03325ZM8.4335 8.43325L6.9135 9.09992L7.58016 7.57992L9.10016 6.91325L8.4335 8.43325Z" fill="#3E6AF2"/>
</svg>
