<svg width="16" height="16" viewBox="0 0 16 16" fill="none" xmlns="http://www.w3.org/2000/svg">
<g clip-path="url(#clip0_210_1784)">
<path d="M9.33301 1.33331H6.66634C4.48019 1.33331 3.38711 1.33331 2.61228 1.87586C2.32561 2.07658 2.07627 2.32592 1.87555 2.61259C1.33301 3.38742 1.33301 4.48049 1.33301 6.66665C1.33301 8.85278 1.33301 9.94585 1.87555 10.7207C2.07627 11.0074 2.32561 11.2567 2.61228 11.4574C3.38711 12 4.48019 12 6.66634 12H9.33301C11.5191 12 12.6122 12 13.3871 11.4574C13.6737 11.2567 13.9231 11.0074 14.1238 10.7207C14.6663 9.94585 14.6663 8.85278 14.6663 6.66665C14.6663 4.48049 14.6663 3.38742 14.1238 2.61259C13.9231 2.32592 13.6737 2.07658 13.3871 1.87586C12.6122 1.33331 11.5191 1.33331 9.33301 1.33331Z" stroke="#3E6AF2" stroke-width="1.3" stroke-linecap="round"/>
<path d="M10.667 5.33331L11.4847 6.03811C11.8285 6.3344 12.0003 6.48255 12.0003 6.66665C12.0003 6.85071 11.8285 6.99891 11.4847 7.29518L10.667 7.99998" stroke="#3E6AF2" stroke-width="1.3" stroke-linecap="round" stroke-linejoin="round"/>
<path d="M5.33333 5.33331L4.51564 6.03811C4.17188 6.3344 4 6.48255 4 6.66665C4 6.85071 4.17188 6.99891 4.51564 7.29518L5.33333 7.99998" stroke="#3E6AF2" stroke-width="1.3" stroke-linecap="round" stroke-linejoin="round"/>
<path d="M8.66634 4.66669L7.33301 8.66669" stroke="#3E6AF2" stroke-width="1.3" stroke-linecap="round" stroke-linejoin="round"/>
<path d="M9.77082 14.6667L9.49162 14.3874C8.86208 13.7579 8.70602 12.7963 9.10415 12" stroke="#3E6AF2" stroke-width="1.3" stroke-linecap="round"/>
<path d="M6.00098 14.6667L6.28022 14.3874C6.9097 13.7579 7.06577 12.7963 6.66764 12" stroke="#3E6AF2" stroke-width="1.3" stroke-linecap="round"/>
<path d="M4.66699 14.6667H11.3337" stroke="#3E6AF2" stroke-width="1.3" stroke-linecap="round"/>
</g>
<defs>
<clipPath id="clip0_210_1784">
<rect width="16" height="16" fill="white"/>
</clipPath>
</defs>
</svg>
