<svg width="16" height="16" viewBox="0 0 16 16" fill="none" xmlns="http://www.w3.org/2000/svg">
<path fill-rule="evenodd" clip-rule="evenodd" d="M7.99995 0.861084C4.80897 0.861084 2.22217 3.44788 2.22217 6.63886C2.22217 10.5389 7.31383 14.9444 7.5305 15.1322C7.80077 15.3634 8.19912 15.3634 8.46939 15.1322C8.72217 14.9444 13.7777 10.5389 13.7777 6.63886C13.7777 3.44788 11.1909 0.861084 7.99995 0.861084ZM7.99995 13.6083C6.46161 12.1639 3.66661 9.05108 3.66661 6.63886C3.66661 4.24563 5.60671 2.30553 7.99995 2.30553C10.3932 2.30553 12.3333 4.24563 12.3333 6.63886C12.3333 9.05108 9.53828 12.1711 7.99995 13.6083ZM7.99995 3.74997C6.40446 3.74997 5.11106 5.04337 5.11106 6.63886C5.11106 8.23435 6.40446 9.52775 7.99995 9.52775C9.59544 9.52775 10.8888 8.23435 10.8888 6.63886C10.8888 5.04337 9.59544 3.74997 7.99995 3.74997ZM7.99995 8.08331C7.2022 8.08331 6.5555 7.43661 6.5555 6.63886C6.5555 5.84112 7.2022 5.19442 7.99995 5.19442C8.79769 5.19442 9.44439 5.84112 9.44439 6.63886C9.44439 7.43661 8.79769 8.08331 7.99995 8.08331Z" fill="#3C67FF"/>
</svg>
