<svg width="16" height="16" viewBox="0 0 16 16" fill="none" xmlns="http://www.w3.org/2000/svg">
<path fill-rule="evenodd" clip-rule="evenodd" d="M12.9601 8.66674C12.8134 8.66674 12.6601 8.62008 12.5134 8.58674C12.2164 8.52129 11.9245 8.4344 11.6401 8.32674C10.9996 8.09373 10.2865 8.38128 9.98675 8.99341L9.84008 9.29341C9.19075 8.9322 8.59407 8.48357 8.06675 7.96008C7.54326 7.43276 7.09463 6.83608 6.73341 6.18674L7.01341 6.00008C7.62555 5.70036 7.91309 4.98724 7.68008 4.34674C7.57423 4.06169 7.48737 3.76994 7.42008 3.47341C7.38675 3.32674 7.36008 3.17341 7.34008 3.02008C7.17283 2.04993 6.32444 1.34577 5.34008 1.36008H3.34008C2.75871 1.35462 2.20373 1.60242 1.8197 2.03893C1.43567 2.47545 1.2606 3.05747 1.34008 3.63341C2.0707 9.37892 6.60529 13.897 12.3534 14.6067H12.6067C13.0984 14.6075 13.573 14.4271 13.9401 14.1001C14.3667 13.7185 14.6094 13.1724 14.6067 12.6001V10.6001C14.5899 9.64512 13.9002 8.83533 12.9601 8.66674ZM13.2934 12.6667C13.2932 12.8582 13.2106 13.0404 13.0667 13.1667C12.9161 13.2968 12.7176 13.3573 12.5201 13.3334C7.3841 12.6749 3.34756 8.61913 2.71341 3.48008C2.69197 3.28274 2.75219 3.08522 2.88008 2.93341C3.00646 2.78955 3.1886 2.70699 3.38008 2.70674H5.38008C5.69988 2.69963 5.97965 2.92065 6.04675 3.23341C6.07341 3.41563 6.10675 3.59563 6.14675 3.77341C6.22376 4.12484 6.32625 4.4702 6.45341 4.80674L5.52008 5.24008C5.3589 5.31403 5.23383 5.44914 5.17253 5.61554C5.11122 5.78194 5.11874 5.9659 5.19341 6.12674C6.15288 8.18191 7.80491 9.83394 9.86008 10.7934C10.0224 10.8601 10.2044 10.8601 10.3667 10.7934C10.5347 10.7333 10.6716 10.6085 10.7467 10.4467L11.1601 9.51341C11.5047 9.63666 11.8565 9.73907 12.2134 9.82008C12.3912 9.86008 12.5712 9.89341 12.7534 9.92008C13.0662 9.98717 13.2872 10.2669 13.2801 10.5867L13.2934 12.6667Z" fill="#3C67FF"/>
</svg>
