<svg width="16" height="16" viewBox="0 0 16 16" fill="none" xmlns="http://www.w3.org/2000/svg">
<g clip-path="url(#clip0_210_1794)">
<path d="M9.63573 8.59653C9.53473 9.01433 9.05746 9.3096 8.10293 9.90013C7.18013 10.4709 6.71879 10.7564 6.34695 10.6417C6.19322 10.5942 6.05316 10.5041 5.94021 10.38C5.66699 10.0799 5.66699 9.49767 5.66699 8.33333C5.66699 7.169 5.66699 6.58679 5.94021 6.28663C6.05316 6.16254 6.19322 6.07245 6.34695 6.02502C6.71879 5.91029 7.18013 6.19571 8.10293 6.76653C9.05746 7.35707 9.53473 7.65233 9.63573 8.07013C9.67739 8.2426 9.67739 8.42407 9.63573 8.59653Z" stroke="#3E6AF2" stroke-width="1.3" stroke-linejoin="round"/>
<path d="M13.9981 7.33333C13.9997 7.64673 13.9997 7.97953 13.9997 8.33333C13.9997 11.3189 13.9997 12.8117 13.0722 13.7392C12.1447 14.6667 10.6519 14.6667 7.66634 14.6667C4.68078 14.6667 3.188 14.6667 2.2605 13.7392C1.33301 12.8117 1.33301 11.3189 1.33301 8.33333C1.33301 5.34777 1.33301 3.85499 2.2605 2.92749C3.188 2 4.68078 2 7.66634 2C8.02014 2 8.35294 2 8.66634 2.00154" stroke="#3E6AF2" stroke-width="1.3" stroke-linecap="round"/>
<path d="M12.3333 1.33331L12.5053 1.798C12.7307 2.40733 12.8435 2.71199 13.0657 2.93424C13.288 3.15649 13.5927 3.26923 14.202 3.4947L14.6667 3.66665L14.202 3.83859C13.5927 4.06407 13.288 4.17681 13.0657 4.39905C12.8435 4.6213 12.7307 4.92597 12.5053 5.53529L12.3333 5.99998L12.1614 5.53529C11.9359 4.92597 11.8232 4.6213 11.6009 4.39905C11.3787 4.17681 11.074 4.06407 10.4647 3.83859L10 3.66665L10.4647 3.4947C11.074 3.26923 11.3787 3.15649 11.6009 2.93424C11.8232 2.71199 11.9359 2.40733 12.1614 1.798L12.3333 1.33331Z" stroke="#3E6AF2" stroke-width="1.3" stroke-linejoin="round"/>
</g>
<defs>
<clipPath id="clip0_210_1794">
<rect width="16" height="16" fill="white"/>
</clipPath>
</defs>
</svg>
