<svg width="16" height="16" viewBox="0 0 16 16" fill="none" xmlns="http://www.w3.org/2000/svg">
<g clip-path="url(#clip0_177_839)">
<path d="M4.20983 4.11745C4.04316 3.69212 4.04983 3.20612 4.12383 2.76145C4.63313 2.91449 5.11154 3.15595 5.53716 3.47478C5.72383 3.61745 5.96849 3.66345 6.19649 3.59478C6.78145 3.41933 7.38913 3.33127 7.99983 3.33345C8.64049 3.33345 9.24916 3.42678 9.80183 3.59412C10.0298 3.66345 10.2745 3.61678 10.4605 3.47412C10.8859 3.15535 11.3641 2.91389 11.8732 2.76078C11.9472 3.20545 11.9532 3.69145 11.7878 4.11612C11.6878 4.37212 11.7378 4.66678 11.9265 4.87612C12.4092 5.41145 12.6665 6.02678 12.6665 6.66678C12.6665 8.07612 11.3532 9.45812 9.24383 9.87878C8.71583 9.98412 8.50983 10.6488 8.91383 11.0294C9.17316 11.2734 9.33316 11.6174 9.33316 12.0001V14.0001C9.33316 14.1769 9.4034 14.3465 9.52842 14.4715C9.65345 14.5965 9.82302 14.6668 9.99983 14.6668C10.1766 14.6668 10.3462 14.5965 10.4712 14.4715C10.5963 14.3465 10.6665 14.1769 10.6665 14.0001V12.0001C10.6665 11.6201 10.5865 11.2588 10.4438 10.9314C12.4552 10.2334 13.9998 8.66212 13.9998 6.66678C13.9998 5.76878 13.6772 4.94345 13.1418 4.25212C13.2818 3.70545 13.2692 3.15478 13.2158 2.73212C13.1685 2.35345 13.1025 1.85745 12.8358 1.56145C12.4392 1.12212 11.7825 1.38078 11.3158 1.54012C10.815 1.70893 10.3386 1.94318 9.89916 2.23678C9.27855 2.07817 8.64038 1.99865 7.99983 2.00012C7.33716 2.00012 6.69783 2.08345 6.09916 2.23745C5.65968 1.94384 5.18334 1.7096 4.68249 1.54078C4.21583 1.38078 3.55849 1.12212 3.16183 1.56145C2.88983 1.86278 2.83316 2.31945 2.78449 2.70745L2.78116 2.73278C2.72783 3.15612 2.71583 3.70745 2.85583 4.25478C2.32249 4.94545 1.99983 5.76945 1.99983 6.66678C1.99983 8.66145 3.54449 10.2334 5.55583 10.9314C5.4105 11.2644 5.33473 11.6235 5.33316 11.9868L5.22116 12.0094C4.74316 12.0754 4.43716 12.0161 4.22916 11.9281C3.72249 11.7134 3.46116 11.1728 3.14249 10.7594C2.94383 10.5028 2.65449 10.1821 2.21049 10.0341C2.12741 10.0065 2.03969 9.99542 1.95235 10.0017C1.865 10.0079 1.77974 10.0313 1.70143 10.0705C1.54327 10.1496 1.42303 10.2883 1.36716 10.4561C1.31129 10.6239 1.32436 10.807 1.4035 10.9652C1.48264 11.1233 1.62137 11.2436 1.78916 11.2994C2.16116 11.4234 2.41849 12.0608 2.65449 12.3434C2.90316 12.6421 3.23383 12.9541 3.70783 13.1554C4.16249 13.3488 4.69649 13.4174 5.33316 13.3394V14.0001C5.33316 14.1769 5.4034 14.3465 5.52842 14.4715C5.65345 14.5965 5.82302 14.6668 5.99983 14.6668C6.17664 14.6668 6.34621 14.5965 6.47123 14.4715C6.59626 14.3465 6.66649 14.1769 6.66649 14.0001V12.0001C6.66649 11.6174 6.82649 11.2734 7.08583 11.0294C7.49049 10.6481 7.28383 9.98412 6.75583 9.87878C4.64583 9.45812 3.33316 8.07612 3.33316 6.66678C3.33316 6.02812 3.58983 5.41278 4.07183 4.87745C4.26049 4.66812 4.30983 4.37345 4.20983 4.11745Z" fill="#3C67FF"/>
</g>
<defs>
<clipPath id="clip0_177_839">
<rect width="16" height="16" fill="white"/>
</clipPath>
</defs>
</svg>
