<svg width="16" height="16" viewBox="0 0 16 16" fill="none" xmlns="http://www.w3.org/2000/svg">
<path fill-rule="evenodd" clip-rule="evenodd" d="M12.6668 2.66675H3.3335C2.22893 2.66675 1.3335 3.56218 1.3335 4.66675V11.3334C1.3335 12.438 2.22893 13.3334 3.3335 13.3334H12.6668C13.7714 13.3334 14.6668 12.438 14.6668 11.3334V4.66675C14.6668 3.56218 13.7714 2.66675 12.6668 2.66675ZM12.3935 4.00008L8.4735 7.92008C8.34832 8.04629 8.17792 8.11728 8.00016 8.11728C7.8224 8.11728 7.65201 8.04629 7.52683 7.92008L3.60683 4.00008H12.3935ZM13.3335 11.3334C13.3335 11.7016 13.035 12.0001 12.6668 12.0001H3.3335C2.96531 12.0001 2.66683 11.7016 2.66683 11.3334V4.94008L6.58683 8.86008C7.36768 9.63996 8.63265 9.63996 9.4135 8.86008L13.3335 4.94008V11.3334Z" fill="#3C67FF"/>
</svg>
